<svg width="46px" height="100px" viewBox="0 0 46 100" version="1.1" xmlns="http://www.w3.org/2000/svg" xmlns:xlink="http://www.w3.org/1999/xlink">
    <!-- Generator: sketchtool 53.1 (72631) - https://sketchapp.com -->
    <title>AA4A671F-C598-4969-A357-7D688B82ECB8</title>
    <g id="Home" stroke="none" stroke-width="1" fill="none" fill-rule="evenodd">
        <g id="TBS_Home" transform="translate(-657.000000, -1005.000000)" fill="#4A4F55">
            <g id="BROWSE-BY-CATEGORY" transform="translate(275.000000, 894.000000)">
                <g id="import" transform="translate(280.000000, 111.000000)">
                    <path d="M136.808482,97.4719385 C137.58308,97.4719385 138.215096,96.7145313 138.240376,95.7710588 L138.076558,94.2430984 L111.77764,94.2430984 L111.613821,95.77207 C111.639102,96.7145313 112.271117,97.4719385 113.045716,97.4719385 L136.808482,97.4719385 Z M107.816673,17.0098089 C104.669742,35.4292648 100.358892,60.657296 113.439082,74.5454545 C113.691888,74.8144403 113.814246,75.1805036 113.77582,75.5465669 L112.047637,91.7150369 L137.806561,91.7150369 L136.078378,75.5465669 C136.039952,75.1805036 136.16231,74.8144403 136.415116,74.5454545 C149.510474,60.6411164 145.184456,35.3524118 142.027412,16.8884619 C141.962694,16.5102639 141.901009,16.1452119 141.837302,15.7740924 L117.840943,15.7740924 C117.143198,15.7740924 116.576912,15.2078067 116.576912,14.5100617 C116.576912,13.8123167 117.143198,13.2460309 117.840943,13.2460309 L141.410565,13.2460309 C140.718888,9.09899889 140.171815,5.43634341 140.041367,2.52806148 L109.81283,2.52806148 C109.645978,6.30599656 108.790482,11.3095358 107.816673,17.0098089 Z M138.652956,75.8479118 L140.76237,95.5779149 C140.767426,95.6224087 140.769449,95.6679138 140.769449,95.7124077 C140.769449,98.0766508 138.992727,100 136.808482,100 L113.045716,100 C110.86147,100 109.084749,98.0766508 109.084749,95.7124077 C109.084749,95.6679138 109.086771,95.6224087 109.091827,95.5779149 L111.201242,75.8479118 C97.7408313,60.9738093 102.118423,35.3453332 105.324005,16.5840833 C106.391858,10.3357266 107.314095,4.93983214 107.314095,1.26403074 C107.314095,0.566285772 107.88038,-6.39488462e-14 108.578125,-6.39488462e-14 L141.276072,-6.39488462e-14 C141.973817,-6.39488462e-14 142.540103,0.566285772 142.540103,1.26403074 C142.540103,4.89129336 143.457284,10.2538174 144.51907,16.4627364 C147.735775,35.2674689 152.127524,60.9576297 138.652956,75.8479118 Z M115.796044,84.866215 L117.036817,73.074325 C103.577417,58.2002225 107.678944,35.3455354 110.884526,16.5852968 C111.429576,13.393872 111.943278,10.3794115 112.310353,7.73505916 C112.405408,7.04338154 113.049558,6.5650723 113.73618,6.65608252 C114.426846,6.75214885 114.910211,7.39023157 114.814145,8.08190919 C114.442014,10.7667105 113.924267,13.799373 113.375172,17.0100111 C110.228242,35.4304783 106.195478,57.8837092 119.274657,71.7718677 C119.527463,72.0408535 119.649821,72.4069168 119.610383,72.7739913 L118.309948,85.1352007 C118.241185,85.7833957 117.69209,86.2647386 117.055019,86.2647386 C117.009514,86.2647386 116.964009,86.2627161 116.918503,86.25766 C116.224803,86.1838406 115.722225,85.5609263 115.796044,84.866215 Z" id="Combined-Shape"></path>
                </g>
            </g>
        </g>
    </g>
</svg>